<svg width="56" height="34" viewBox="0 0 56 34" fill="none" xmlns="http://www.w3.org/2000/svg">
<path d="M55.75 17C55.75 21.5736 52.6956 25.7554 47.6692 28.8071C42.6475 31.8561 35.6939 33.75 28 33.75C20.3061 33.75 13.3525 31.8561 8.33075 28.8071C3.30444 25.7554 0.25 21.5736 0.25 17C0.25 12.4264 3.30444 8.24457 8.33075 5.19288C13.3525 2.14394 20.3061 0.25 28 0.25C35.6939 0.25 42.6475 2.14394 47.6692 5.19288C52.6956 8.24457 55.75 12.4264 55.75 17Z" fill="#FCF9F9" stroke="black" stroke-width="0.5"/>
<path d="M41.5 16.5C41.5 24.2487 35.4395 30.5 28 30.5C20.5605 30.5 14.5 24.2487 14.5 16.5C14.5 8.75133 20.5605 2.5 28 2.5C35.4395 2.5 41.5 8.75133 41.5 16.5Z" fill="#9FC76C" stroke="black"/>
<ellipse cx="28" cy="16.5" rx="7" ry="7.5" fill="black"/>
<ellipse cx="31.5" cy="13" rx="3.5" ry="4" fill="#FCF9F9"/>
</svg>
