<svg width="93" height="59" viewBox="0 0 93 59" fill="none" xmlns="http://www.w3.org/2000/svg">
<path d="M3.2514 4.50279C4.2967 9.99066 5.24094 16.5316 8.74363 20.91C9.85072 22.2938 11.084 23.7784 13.2626 23.8994C15.4709 24.0221 16.1951 21.3145 17.5034 20.0062C19.3388 18.1708 21.3966 10.667 21.3966 13.2626C21.3966 16.2162 26.2457 21.6117 29.5307 22.0223C31.1184 22.2208 32.6504 22.759 34.5363 22.648C35.3138 22.6023 37.7425 17.0739 38.2905 16.252C39.2418 14.825 40.5622 11.3219 42.1837 13.1235C43.2306 14.2868 43.8002 15.7698 44.6865 16.8777C47.3685 20.2302 49.3843 22.648 53.9329 22.648C56.8273 22.648 58.2786 20.8052 60.1899 18.8938C60.9363 18.1475 61.5948 17.0191 62.3799 16.3911C62.6487 16.176 63.3184 14.2525 63.3184 14.2706C63.3184 18.0005 71.9737 30.4248 74.8591 26.7151C76.6284 24.4402 78.3187 21.9785 79.8994 19.5195C80.6041 18.4233 82.715 13.0993 82.715 14.2011C82.715 17.4303 86.4902 27.823 89.2849 21.6747C91.4249 16.9667 90.8491 11.7298 90.8491 6.69274C90.8491 -0.0661278 71.3118 2.43963 68.5673 2.6257C55.5965 3.50508 42.8416 3.87709 29.8436 3.87709C24.8086 3.87709 19.9391 2.6257 14.8268 2.6257C10.7545 2.6257 6.269 2 2 2" stroke="#FCF9F9" stroke-width="3" stroke-linecap="round"/>
<path d="M89.7072 54.6165C88.6619 49.1287 87.7176 42.5877 84.215 38.2093C83.1079 36.8255 81.8746 35.3409 79.696 35.2199C77.4876 35.0972 76.7635 37.8048 75.4552 39.1131C73.6198 40.9485 71.5619 48.4523 71.5619 45.8568C71.5619 42.9031 66.7129 37.5076 63.4279 37.097C61.8402 36.8985 60.3082 36.3603 58.4223 36.4713C57.6447 36.517 55.2161 42.0454 54.6681 42.8673C53.7168 44.2943 52.3964 47.7975 50.7749 45.9958C49.7279 44.8325 49.1584 43.3495 48.2721 42.2416C45.5901 38.8891 43.5743 36.4713 39.0257 36.4713C36.1313 36.4713 34.68 38.3141 32.7687 40.2255C32.0223 40.9718 31.3638 42.1002 30.5787 42.7283C30.3099 42.9433 29.6402 44.8668 29.6402 44.8487C29.6402 41.1188 20.9849 28.6945 18.0995 32.4042C16.3301 34.6792 14.6399 37.1409 13.0592 39.5998C12.3545 40.696 10.2435 46.02 10.2435 44.9182C10.2435 41.689 6.4684 31.2963 3.67371 37.4446C1.53372 42.1526 2.10947 47.3895 2.10947 52.4266C2.10947 59.1854 21.6468 56.6797 24.3913 56.4936C37.3621 55.6142 50.117 55.2422 63.115 55.2422C68.15 55.2422 73.0195 56.4936 78.1318 56.4936C82.204 56.4936 86.6896 57.1193 90.9586 57.1193" stroke="#FCF9F9" stroke-width="3" stroke-linecap="round"/>
</svg>
